<svg width="20" height="22" viewBox="0 0 20 22" fill="none" xmlns="http://www.w3.org/2000/svg">
<path d="M5.72786e-07 15.4248V3.8252C5.72786e-07 3.27566 -0.000475913 2.82581 0.0292974 2.46094C0.0596985 2.08873 0.124746 1.74936 0.286133 1.43262C0.537752 0.938973 0.938975 0.537751 1.43262 0.286133C1.74936 0.124745 2.08873 0.0596986 2.46094 0.0292973C2.82581 -0.000476176 3.27566 4.58757e-07 3.8252 4.58757e-07H8.29981C8.42153 4.56186e-07 8.53198 7.62947e-05 8.63086 0.000977021C8.92089 0.0036221 9.16246 0.0130351 9.40918 0.0722661C9.67647 0.136436 9.93287 0.242711 10.168 0.386719C10.4475 0.558011 10.6803 0.795497 11.0049 1.12012L14.1299 4.24609C14.4554 4.57158 14.6911 4.80264 14.8623 5.08203C15.0059 5.31634 15.1123 5.5725 15.1768 5.84082C15.2359 6.08737 15.2464 6.32924 15.249 6.61914C15.2499 6.71791 15.25 6.82872 15.25 6.95117V15.4287C15.25 15.9773 15.2505 16.4268 15.2207 16.791C15.1903 17.1625 15.125 17.5001 14.9639 17.8164C14.7121 18.3106 14.3099 18.7124 13.8164 18.9639C13.5 19.1251 13.1617 19.1903 12.79 19.2207C12.4258 19.2505 11.9763 19.25 11.4277 19.25H3.82227C3.27383 19.25 2.82436 19.2505 2.45996 19.2207C2.08822 19.1903 1.74913 19.1251 1.43262 18.9639C0.938545 18.712 0.537547 18.3098 0.286133 17.8164C0.12491 17.4999 0.0597187 17.1619 0.0292974 16.79C-0.000513934 16.4252 5.72786e-07 15.9745 5.72786e-07 15.4248ZM10.625 14C10.9702 14 11.25 14.2798 11.25 14.625C11.25 14.9702 10.9702 15.25 10.625 15.25H4.625C4.27982 15.25 4 14.9702 4 14.625C4 14.2798 4.27982 14 4.625 14H10.625ZM10.625 11C10.9702 11 11.25 11.2798 11.25 11.625C11.25 11.9702 10.9702 12.25 10.625 12.25H4.625C4.27982 12.25 4 11.9702 4 11.625C4 11.2798 4.27982 11 4.625 11H10.625ZM9.25 3.42578C9.25 3.99567 9.25074 4.38555 9.27539 4.6875C9.29945 4.98197 9.34287 5.13791 9.39942 5.24902C9.53139 5.50804 9.74255 5.71891 10.001 5.85059C10.1118 5.90698 10.2674 5.95058 10.5615 5.97461C10.8633 5.99925 11.2531 6 11.8223 6H13.9219C13.8896 5.90781 13.8483 5.81831 13.7969 5.73438C13.7207 5.61017 13.6122 5.49602 13.2461 5.12988L10.1201 2.00488C9.75378 1.63854 9.63948 1.52911 9.51563 1.45313C9.43212 1.40195 9.34272 1.35949 9.25 1.32715V3.42578ZM1.25 15.4248C1.25 15.995 1.25072 16.3855 1.27539 16.6875C1.29946 16.982 1.34285 17.1379 1.39941 17.249C1.53142 17.5081 1.7426 17.7189 2.00098 17.8506C2.11185 17.907 2.26742 17.9506 2.56152 17.9746C2.86326 17.9993 3.2531 18 3.82227 18H11.4277C11.997 18 12.3869 17.9993 12.6885 17.9746C12.9825 17.9505 13.1381 17.9071 13.249 17.8506C13.508 17.7186 13.719 17.5074 13.8506 17.249C13.9071 17.1381 13.9506 16.9825 13.9746 16.6885C13.9992 16.387 14 15.9978 14 15.4287V7.25H11.8223C11.2738 7.25 10.8244 7.25045 10.46 7.2207C10.0882 7.19033 9.74913 7.12514 9.43262 6.96387C8.9386 6.71204 8.53758 6.30989 8.28613 5.81641C8.12493 5.49991 8.05971 5.1619 8.0293 4.79004C7.99949 4.42523 8 3.97454 8 3.42481V1.25H3.8252C3.25497 1.25 2.86474 1.25072 2.5625 1.27539C2.26796 1.29945 2.11202 1.34294 2.00098 1.39941C1.74225 1.53124 1.53124 1.74226 1.39941 2.00098C1.34294 2.11202 1.29945 2.26796 1.27539 2.5625C1.25072 2.86474 1.25 3.25497 1.25 3.8252V15.4248Z" fill="#E8906A"/>
<path d="M19.625 15.625C19.625 18.9387 16.9387 21.625 13.625 21.625C10.3113 21.625 7.625 18.9387 7.625 15.625C7.625 12.3113 10.3113 9.625 13.625 9.625C16.9387 9.625 19.625 12.3113 19.625 15.625Z" fill="#F8EAE1"/>
<path d="M18.625 15.625C18.625 18.3864 16.3864 20.625 13.625 20.625C10.8636 20.625 8.625 18.3864 8.625 15.625C8.625 12.8636 10.8636 10.625 13.625 10.625C16.3864 10.625 18.625 12.8636 18.625 15.625Z" fill="#E8906A"/>
<path d="M15.5537 13.1387C15.8223 12.8235 16.2961 12.7853 16.6113 13.0537C16.9265 13.3223 16.9647 13.7961 16.6963 14.1113L13.2871 18.1113C13.1446 18.2785 12.9355 18.375 12.7158 18.375C12.4961 18.375 12.287 18.2785 12.1445 18.1113L10.5537 16.2451C10.2851 15.9299 10.3234 15.4562 10.6387 15.1875C10.9539 14.9189 11.4276 14.9562 11.6963 15.2715L12.7158 16.4678L15.5537 13.1387Z" fill="#F8EAE1"/>
</svg>
