<svg width="24" height="22" viewBox="0 0 24 22" fill="none" xmlns="http://www.w3.org/2000/svg">
<path d="M11.5762 8.68262C11.877 8.68262 12.1893 8.68227 12.4785 8.72852C12.6057 8.75165 12.7331 8.78677 12.8604 8.83301C13.6706 9.1108 14.3542 9.73531 14.8867 10.3604C15.9054 11.5411 16.7507 12.5487 17.7578 13.7295C19.2742 15.2459 21.1381 16.9247 20.7793 19.2861C20.4436 20.4552 19.5982 21.6358 18.082 21.9717C17.237 22.1337 14.5396 21.463 11.6689 21.4629H11.46C8.58917 21.4629 5.89191 22.1453 5.04688 21.9717C3.53051 21.6359 2.6853 20.4669 2.34961 19.2861C2.00234 16.9362 3.86636 15.2577 5.38281 13.7412C6.4015 12.5604 7.24679 11.5528 8.25391 10.3721C8.79788 9.74712 9.46921 9.12254 10.2793 8.84473C10.4065 8.79845 10.5339 8.76339 10.6611 8.74023C10.9621 8.68235 11.2752 8.68262 11.5762 8.68262ZM2.89355 4.63086C4.49179 4.63086 5.78796 5.92617 5.78809 7.52441C5.78809 9.12276 4.49187 10.4189 2.89355 10.4189C1.29538 10.4188 0 9.12266 0 7.52441C0.000124007 5.92628 1.29546 4.63103 2.89355 4.63086ZM20.2578 4.63086C21.8561 4.63086 23.1522 5.92617 23.1523 7.52441C23.1523 9.12276 21.8561 10.4189 20.2578 10.4189C18.6595 10.4189 17.3643 9.12273 17.3643 7.52441C17.3644 5.92621 18.6596 4.63091 20.2578 4.63086ZM8.10352 0C9.70163 0.000234675 10.9971 1.29633 10.9971 2.89453C10.9969 4.49255 9.7015 5.78785 8.10352 5.78809C6.50533 5.78809 5.20919 4.4927 5.20898 2.89453C5.20898 1.29618 6.5052 0 8.10352 0ZM15.0488 0C16.6471 6.91258e-05 17.9424 1.29623 17.9424 2.89453C17.9422 4.49266 16.647 5.78802 15.0488 5.78809C13.4506 5.78809 12.1545 4.4927 12.1543 2.89453C12.1543 1.29618 13.4505 0 15.0488 0Z" fill="#7F9E85"/>
</svg>
