<svg width="19" height="19" viewBox="0 0 19 19" fill="none" xmlns="http://www.w3.org/2000/svg">
<path d="M6.41357 1.84741C7.95297 0.217573 10.5461 0.217572 12.0854 1.84741L17.7837 7.88062C17.9787 8.08712 17.8324 8.4265 17.5483 8.42651C16.6792 8.42651 15.9742 9.13156 15.9741 10.0007V16.3093C15.9741 17.4139 15.0787 18.3093 13.9741 18.3093C12.8697 18.3091 11.9741 17.4138 11.9741 16.3093V13.6228C11.9741 12.1178 10.7545 10.8972 9.24951 10.8972C7.74454 10.8972 6.5249 12.1178 6.5249 13.6228V16.3093C6.5249 17.4138 5.62929 18.3091 4.5249 18.3093C3.42033 18.3093 2.5249 17.4139 2.5249 16.3093V10.0007C2.52487 9.13156 1.81986 8.42651 0.950684 8.42651C0.666642 8.4265 0.520302 8.08712 0.715332 7.88062L6.41357 1.84741Z" stroke="currentColor" stroke-width="1.25"/>
</svg>
